<svg viewBox="0 0 24 24" role="img" aria-hidden="false" aria-label="Открыть «ВКонтакте»" focusable="false" style="height:18px;width:18px;display:block;fill:currentColor"><path d="m22.88 18.92-3.2.05s-.69.14-1.59-.5c-1.2-.84-2.33-3.03-3.21-2.74-.89.29-.86 2.26-.86 2.26s.01.42-.2.64c-.22.25-.65.29-.65.29h-1.43s-3.16.2-5.94-2.77c-3.05-3.23-5.73-9.64-5.73-9.64s-.16-.42.01-.63c.19-.22.7-.24.7-.24l3.43-.02s.32.06.55.23c.19.14.3.41.3.41s.55 1.43 1.29 2.73c1.43 2.53 2.1 3.08 2.58 2.81.71-.4.5-3.57.5-3.57s.01-1.15-.36-1.67c-.29-.4-.83-.52-1.06-.55-.19-.03.12-.49.53-.69.62-.31 1.71-.33 2.99-.31 1 .01 1.29.07 1.68.17 1.18.29.78 1.42.78 4.12 0 .87-.15 2.08.46 2.49.26.17.91.03 2.51-2.76.76-1.32 1.33-2.87 1.33-2.87s.13-.28.32-.4c.2-.12.46-.09.46-.09l3.61-.02s1.08-.13 1.26.37c.19.52-.4 1.75-1.88 3.76-2.42 3.3-2.69 2.99-.68 4.89 1.92 1.82 2.31 2.71 2.38 2.82.8 1.35-.88 1.45-.88 1.45z" fill-rule="evenodd"></path></svg>